<svg xmlns="http://www.w3.org/2000/svg" viewBox="0 0 64 64" role="img" aria-label="Kobo Stats">
  <rect width="64" height="64" rx="14" fill="#117a81"/>
  <path
    d="M14 18.5c0-2.2 1.8-4 4-4h10.4c2 0 3.7.6 5.1 1.8 1.4-1.2 3.1-1.8 5.1-1.8H46c2.2 0 4 1.8 4 4v29c0 1.2-1.2 2.1-2.3 1.7-3.4-1.3-6.7-1.9-9.7-1.9-2.4 0-4.3.6-5.6 1.7-.7.6-1.7.6-2.4 0-1.4-1.1-3.2-1.7-5.6-1.7-3 0-6.3.6-9.7 1.9-1.1.4-2.3-.4-2.3-1.7v-29z"
    fill="#f8faf9"
  />
  <path
    d="M19 21.5h8.2c2 0 3.5.8 4.6 2.3v18.8c-1.5-.8-3.4-1.2-5.7-1.2-2.4 0-4.8.3-7.1 1V21.5zm26 0v20.9c-2.3-.7-4.7-1-7.1-1-2.3 0-4.2.4-5.7 1.2V23.8c1.1-1.5 2.6-2.3 4.6-2.3H45z"
    fill="#117a81"
  />
  <rect x="36" y="33" width="3.6" height="7" rx="1.2" fill="#d9952f"/>
  <rect x="41" y="28" width="3.6" height="12" rx="1.2" fill="#d9952f"/>
  <rect x="46" y="24" width="3.6" height="16" rx="1.2" fill="#d9952f"/>
</svg>
